<svg width="280" height="280" viewBox="0 0 280 280" fill="none" xmlns="http://www.w3.org/2000/svg">
<path d="M242.748 2.8875C241.085 1.05 238.74 0 236.255 0H43.7555C41.288 0 38.9255 1.05 37.263 2.8875C35.618 4.7075 34.7955 7.1575 35.0405 9.625L61.2905 272.125C61.7455 276.605 65.508 280 70.0055 280H210.005C214.503 280 218.265 276.605 218.703 272.125L244.953 9.625C245.215 7.1575 244.41 4.7075 242.748 2.8875Z" fill="#ECEFF1"/>
<path d="M221 89.3425L203.675 262.593H79.425L60 68.8675C81.875 61.8675 115.125 57.1425 141.55 78.8425C167.1 99.8425 199.3 95.9925 221 89.3425Z" fill="#2196F3"/>
</svg>
